<svg id="visual" viewBox="0 0 960 540" width="960" height="540" xmlns="http://www.w3.org/2000/svg" xmlns:xlink="http://www.w3.org/1999/xlink" version="1.1"><rect x="0" y="0" width="960" height="540" fill="#333"></rect><path d="M0 423L22.8 417.8C45.7 412.7 91.3 402.3 137 388.7C182.7 375 228.3 358 274 358.3C319.7 358.7 365.3 376.3 411.2 377.7C457 379 503 364 548.8 362.7C594.7 361.3 640.3 373.7 686 370.2C731.7 366.7 777.3 347.3 823 350C868.7 352.7 914.3 377.3 937.2 389.7L960 402L960 541L937.2 541C914.3 541 868.7 541 823 541C777.3 541 731.7 541 686 541C640.3 541 594.7 541 548.8 541C503 541 457 541 411.2 541C365.3 541 319.7 541 274 541C228.3 541 182.7 541 137 541C91.3 541 45.7 541 22.8 541L0 541Z" fill="#1dacb9"></path><path d="M0 420L22.8 432.2C45.7 444.3 91.3 468.7 137 473.7C182.7 478.7 228.3 464.3 274 461.7C319.7 459 365.3 468 411.2 465C457 462 503 447 548.8 447C594.7 447 640.3 462 686 472.2C731.7 482.3 777.3 487.7 823 483C868.7 478.3 914.3 463.7 937.2 456.3L960 449L960 541L937.2 541C914.3 541 868.7 541 823 541C777.3 541 731.7 541 686 541C640.3 541 594.7 541 548.8 541C503 541 457 541 411.2 541C365.3 541 319.7 541 274 541C228.3 541 182.7 541 137 541C91.3 541 45.7 541 22.8 541L0 541Z" fill="#1d61b9"></path></svg>