<svg id="visual" viewBox="0 0 960 540" width="960" height="540" xmlns="http://www.w3.org/2000/svg" xmlns:xlink="http://www.w3.org/1999/xlink" version="1.1"><rect x="0" y="0" width="960" height="540" fill="#333"></rect><path d="M0 351L26.7 337.8C53.3 324.7 106.7 298.3 160 291C213.3 283.7 266.7 295.3 320 302.7C373.3 310 426.7 313 480 314.3C533.3 315.7 586.7 315.3 640 335.8C693.3 356.3 746.7 397.7 800 392.8C853.3 388 906.7 337 933.3 311.5L960 286L960 541L933.3 541C906.7 541 853.3 541 800 541C746.7 541 693.3 541 640 541C586.7 541 533.3 541 480 541C426.7 541 373.3 541 320 541C266.7 541 213.3 541 160 541C106.7 541 53.3 541 26.7 541L0 541Z" fill="#1d61b9"></path><path d="M0 333L26.7 346.3C53.3 359.7 106.7 386.3 160 407.2C213.3 428 266.7 443 320 441.2C373.3 439.3 426.7 420.7 480 423.3C533.3 426 586.7 450 640 439.7C693.3 429.3 746.7 384.7 800 371.3C853.3 358 906.7 376 933.3 385L960 394L960 541L933.3 541C906.7 541 853.3 541 800 541C746.7 541 693.3 541 640 541C586.7 541 533.3 541 480 541C426.7 541 373.3 541 320 541C266.7 541 213.3 541 160 541C106.7 541 53.3 541 26.7 541L0 541Z" fill="#0070bf"></path><path d="M0 377L26.7 371.2C53.3 365.3 106.7 353.7 160 348.3C213.3 343 266.7 344 320 368C373.3 392 426.7 439 480 437C533.3 435 586.7 384 640 362.7C693.3 341.3 746.7 349.7 800 361.7C853.3 373.7 906.7 389.3 933.3 397.2L960 405L960 541L933.3 541C906.7 541 853.3 541 800 541C746.7 541 693.3 541 640 541C586.7 541 533.3 541 480 541C426.7 541 373.3 541 320 541C266.7 541 213.3 541 160 541C106.7 541 53.3 541 26.7 541L0 541Z" fill="#007ec2"></path><path d="M0 429L26.7 438.3C53.3 447.7 106.7 466.3 160 464.7C213.3 463 266.7 441 320 432.2C373.3 423.3 426.7 427.7 480 421.3C533.3 415 586.7 398 640 410.2C693.3 422.3 746.7 463.7 800 480C853.3 496.3 906.7 487.7 933.3 483.3L960 479L960 541L933.3 541C906.7 541 853.3 541 800 541C746.7 541 693.3 541 640 541C586.7 541 533.3 541 480 541C426.7 541 373.3 541 320 541C266.7 541 213.3 541 160 541C106.7 541 53.3 541 26.7 541L0 541Z" fill="#008bc4"></path><path d="M0 515L26.7 508C53.3 501 106.7 487 160 472C213.3 457 266.7 441 320 444.8C373.3 448.7 426.7 472.3 480 483.8C533.3 495.3 586.7 494.7 640 495.5C693.3 496.3 746.7 498.7 800 494C853.3 489.3 906.7 477.7 933.3 471.8L960 466L960 541L933.3 541C906.7 541 853.3 541 800 541C746.7 541 693.3 541 640 541C586.7 541 533.3 541 480 541C426.7 541 373.3 541 320 541C266.7 541 213.3 541 160 541C106.7 541 53.3 541 26.7 541L0 541Z" fill="#0097c3"></path><path d="M0 512L26.7 510C53.3 508 106.7 504 160 495.2C213.3 486.3 266.7 472.7 320 464.5C373.3 456.3 426.7 453.7 480 454.7C533.3 455.7 586.7 460.3 640 466.8C693.3 473.3 746.7 481.7 800 479.2C853.3 476.7 906.7 463.3 933.3 456.7L960 450L960 541L933.3 541C906.7 541 853.3 541 800 541C746.7 541 693.3 541 640 541C586.7 541 533.3 541 480 541C426.7 541 373.3 541 320 541C266.7 541 213.3 541 160 541C106.7 541 53.3 541 26.7 541L0 541Z" fill="#00a2bf"></path><path d="M0 479L26.7 479.5C53.3 480 106.7 481 160 481.3C213.3 481.7 266.7 481.3 320 488.5C373.3 495.7 426.7 510.3 480 517C533.3 523.7 586.7 522.3 640 513.3C693.3 504.3 746.7 487.7 800 488.2C853.3 488.7 906.7 506.3 933.3 515.2L960 524L960 541L933.3 541C906.7 541 853.3 541 800 541C746.7 541 693.3 541 640 541C586.7 541 533.3 541 480 541C426.7 541 373.3 541 320 541C266.7 541 213.3 541 160 541C106.7 541 53.3 541 26.7 541L0 541Z" fill="#1dacb9"></path></svg>