<svg id="visual" viewBox="0 0 960 540" width="960" height="540" xmlns="http://www.w3.org/2000/svg" xmlns:xlink="http://www.w3.org/1999/xlink" version="1.1"><rect x="0" y="0" width="960" height="540" fill="#333"></rect><path d="M0 288L26.7 270.5C53.3 253 106.7 218 160 208.2C213.3 198.3 266.7 213.7 320 223.5C373.3 233.3 426.7 237.7 480 239.5C533.3 241.3 586.7 240.7 640 267.8C693.3 295 746.7 350 800 343.7C853.3 337.3 906.7 269.7 933.3 235.8L960 202L960 541L933.3 541C906.7 541 853.3 541 800 541C746.7 541 693.3 541 640 541C586.7 541 533.3 541 480 541C426.7 541 373.3 541 320 541C266.7 541 213.3 541 160 541C106.7 541 53.3 541 26.7 541L0 541Z" fill="#1d61b9"></path><path d="M0 264L26.7 281.8C53.3 299.7 106.7 335.3 160 363.2C213.3 391 266.7 411 320 408.7C373.3 406.3 426.7 381.7 480 385.2C533.3 388.7 586.7 420.3 640 406.5C693.3 392.7 746.7 333.3 800 315.7C853.3 298 906.7 322 933.3 334L960 346L960 541L933.3 541C906.7 541 853.3 541 800 541C746.7 541 693.3 541 640 541C586.7 541 533.3 541 480 541C426.7 541 373.3 541 320 541C266.7 541 213.3 541 160 541C106.7 541 53.3 541 26.7 541L0 541Z" fill="#0070bf"></path><path d="M0 323L26.7 315.2C53.3 307.3 106.7 291.7 160 284.7C213.3 277.7 266.7 279.3 320 311.5C373.3 343.7 426.7 406.3 480 403.5C533.3 400.7 586.7 332.3 640 303.8C693.3 275.3 746.7 286.7 800 302.7C853.3 318.7 906.7 339.3 933.3 349.7L960 360L960 541L933.3 541C906.7 541 853.3 541 800 541C746.7 541 693.3 541 640 541C586.7 541 533.3 541 480 541C426.7 541 373.3 541 320 541C266.7 541 213.3 541 160 541C106.7 541 53.3 541 26.7 541L0 541Z" fill="#007ec2"></path><path d="M0 392L26.7 404.5C53.3 417 106.7 442 160 440C213.3 438 266.7 409 320 397.2C373.3 385.3 426.7 390.7 480 382C533.3 373.3 586.7 350.7 640 366.8C693.3 383 746.7 438 800 459.8C853.3 481.7 906.7 470.3 933.3 464.7L960 459L960 541L933.3 541C906.7 541 853.3 541 800 541C746.7 541 693.3 541 640 541C586.7 541 533.3 541 480 541C426.7 541 373.3 541 320 541C266.7 541 213.3 541 160 541C106.7 541 53.3 541 26.7 541L0 541Z" fill="#008bc4"></path><path d="M0 506L26.7 496.8C53.3 487.7 106.7 469.3 160 449.5C213.3 429.7 266.7 408.3 320 413.3C373.3 418.3 426.7 449.7 480 465.2C533.3 480.7 586.7 480.3 640 481.7C693.3 483 746.7 486 800 479.5C853.3 473 906.7 457 933.3 449L960 441L960 541L933.3 541C906.7 541 853.3 541 800 541C746.7 541 693.3 541 640 541C586.7 541 533.3 541 480 541C426.7 541 373.3 541 320 541C266.7 541 213.3 541 160 541C106.7 541 53.3 541 26.7 541L0 541Z" fill="#0097c3"></path><path d="M0 503L26.7 500.3C53.3 497.7 106.7 492.3 160 480.5C213.3 468.7 266.7 450.3 320 439.5C373.3 428.7 426.7 425.3 480 426.7C533.3 428 586.7 434 640 442.5C693.3 451 746.7 462 800 458.8C853.3 455.7 906.7 438.3 933.3 429.7L960 421L960 541L933.3 541C906.7 541 853.3 541 800 541C746.7 541 693.3 541 640 541C586.7 541 533.3 541 480 541C426.7 541 373.3 541 320 541C266.7 541 213.3 541 160 541C106.7 541 53.3 541 26.7 541L0 541Z" fill="#00a2bf"></path><path d="M0 459L26.7 459.7C53.3 460.3 106.7 461.7 160 462.2C213.3 462.7 266.7 462.3 320 471.8C373.3 481.3 426.7 500.7 480 509.5C533.3 518.3 586.7 516.7 640 504.8C693.3 493 746.7 471 800 471.7C853.3 472.3 906.7 495.7 933.3 507.3L960 519L960 541L933.3 541C906.7 541 853.3 541 800 541C746.7 541 693.3 541 640 541C586.7 541 533.3 541 480 541C426.7 541 373.3 541 320 541C266.7 541 213.3 541 160 541C106.7 541 53.3 541 26.7 541L0 541Z" fill="#1dacb9"></path></svg>