<svg id="visual" viewBox="0 0 900 600" width="900" height="600" xmlns="http://www.w3.org/2000/svg" xmlns:xlink="http://www.w3.org/1999/xlink" version="1.1"><rect x="0" y="0" width="900" height="600" fill="#333"></rect><path d="M0 422L21.5 423.7C43 425.3 86 428.7 128.8 417C171.7 405.3 214.3 378.7 257.2 379.3C300 380 343 408 385.8 410.5C428.7 413 471.3 390 514.2 384C557 378 600 389 642.8 391.8C685.7 394.7 728.3 389.3 771.2 393.8C814 398.3 857 412.7 878.5 419.8L900 427L900 601L878.5 601C857 601 814 601 771.2 601C728.3 601 685.7 601 642.8 601C600 601 557 601 514.2 601C471.3 601 428.7 601 385.8 601C343 601 300 601 257.2 601C214.3 601 171.7 601 128.8 601C86 601 43 601 21.5 601L0 601Z" fill="#1dacb9"></path><path d="M0 469L21.5 462.2C43 455.3 86 441.7 128.8 441.3C171.7 441 214.3 454 257.2 461.7C300 469.3 343 471.7 385.8 460.8C428.7 450 471.3 426 514.2 426.7C557 427.3 600 452.7 642.8 451.7C685.7 450.7 728.3 423.3 771.2 410.8C814 398.3 857 400.7 878.5 401.8L900 403L900 601L878.5 601C857 601 814 601 771.2 601C728.3 601 685.7 601 642.8 601C600 601 557 601 514.2 601C471.3 601 428.7 601 385.8 601C343 601 300 601 257.2 601C214.3 601 171.7 601 128.8 601C86 601 43 601 21.5 601L0 601Z" fill="#009dc2"></path><path d="M0 487L21.5 482.3C43 477.7 86 468.3 128.8 469.2C171.7 470 214.3 481 257.2 488.5C300 496 343 500 385.8 497.5C428.7 495 471.3 486 514.2 483.3C557 480.7 600 484.3 642.8 489.3C685.7 494.3 728.3 500.7 771.2 503.8C814 507 857 507 878.5 507L900 507L900 601L878.5 601C857 601 814 601 771.2 601C728.3 601 685.7 601 642.8 601C600 601 557 601 514.2 601C471.3 601 428.7 601 385.8 601C343 601 300 601 257.2 601C214.3 601 171.7 601 128.8 601C86 601 43 601 21.5 601L0 601Z" fill="#008bc4"></path><path d="M0 528L21.5 527.7C43 527.3 86 526.7 128.8 527.5C171.7 528.3 214.3 530.7 257.2 525.8C300 521 343 509 385.8 504C428.7 499 471.3 501 514.2 500.5C557 500 600 497 642.8 502.5C685.7 508 728.3 522 771.2 527.7C814 533.3 857 530.7 878.5 529.3L900 528L900 601L878.5 601C857 601 814 601 771.2 601C728.3 601 685.7 601 642.8 601C600 601 557 601 514.2 601C471.3 601 428.7 601 385.8 601C343 601 300 601 257.2 601C214.3 601 171.7 601 128.8 601C86 601 43 601 21.5 601L0 601Z" fill="#0077c1"></path><path d="M0 565L21.5 562.2C43 559.3 86 553.7 128.8 551.8C171.7 550 214.3 552 257.2 555.5C300 559 343 564 385.8 559.7C428.7 555.3 471.3 541.7 514.2 540C557 538.3 600 548.7 642.8 555C685.7 561.3 728.3 563.7 771.2 566C814 568.3 857 570.7 878.5 571.8L900 573L900 601L878.5 601C857 601 814 601 771.2 601C728.3 601 685.7 601 642.8 601C600 601 557 601 514.2 601C471.3 601 428.7 601 385.8 601C343 601 300 601 257.2 601C214.3 601 171.7 601 128.8 601C86 601 43 601 21.5 601L0 601Z" fill="#1d61b9"></path></svg>