<svg id="visual" viewBox="0 0 960 540" width="960" height="540" xmlns="http://www.w3.org/2000/svg" xmlns:xlink="http://www.w3.org/1999/xlink" version="1.1"><rect x="0" y="0" width="960" height="540" fill="#333"></rect><path d="M0 188L40 212.7C80 237.3 160 286.7 240 322.2C320 357.7 400 379.3 480 357C560 334.7 640 268.3 720 264.5C800 260.7 880 319.3 920 348.7L960 378L960 541L920 541C880 541 800 541 720 541C640 541 560 541 480 541C400 541 320 541 240 541C160 541 80 541 40 541L0 541Z" fill="#1d61b9"></path><path d="M0 430L40 427.7C80 425.3 160 420.7 240 419.8C320 419 400 422 480 409.3C560 396.7 640 368.3 720 361C800 353.7 880 367.3 920 374.2L960 381L960 541L920 541C880 541 800 541 720 541C640 541 560 541 480 541C400 541 320 541 240 541C160 541 80 541 40 541L0 541Z" fill="#008bc4"></path><path d="M0 388L40 387.2C80 386.3 160 384.7 240 379.5C320 374.3 400 365.7 480 370.7C560 375.7 640 394.3 720 414.2C800 434 880 455 920 465.5L960 476L960 541L920 541C880 541 800 541 720 541C640 541 560 541 480 541C400 541 320 541 240 541C160 541 80 541 40 541L0 541Z" fill="#1dacb9"></path></svg>