<svg id="visual" viewBox="0 0 900 600" width="900" height="600" xmlns="http://www.w3.org/2000/svg" xmlns:xlink="http://www.w3.org/1999/xlink" version="1.1"><rect x="0" y="0" width="900" height="600" fill="#333"></rect><path d="M0 436L21.5 437.8C43 439.7 86 443.3 128.8 447.8C171.7 452.3 214.3 457.7 257.2 453C300 448.3 343 433.7 385.8 433.7C428.7 433.7 471.3 448.3 514.2 448.7C557 449 600 435 642.8 435.7C685.7 436.3 728.3 451.7 771.2 453.3C814 455 857 443 878.5 437L900 431L900 601L878.5 601C857 601 814 601 771.2 601C728.3 601 685.7 601 642.8 601C600 601 557 601 514.2 601C471.3 601 428.7 601 385.8 601C343 601 300 601 257.2 601C214.3 601 171.7 601 128.8 601C86 601 43 601 21.5 601L0 601Z" fill="#1d61b9"></path><path d="M0 438L21.5 443.5C43 449 86 460 128.8 462.2C171.7 464.3 214.3 457.7 257.2 453.8C300 450 343 449 385.8 457.5C428.7 466 471.3 484 514.2 486.8C557 489.7 600 477.3 642.8 470.8C685.7 464.3 728.3 463.7 771.2 469.3C814 475 857 487 878.5 493L900 499L900 601L878.5 601C857 601 814 601 771.2 601C728.3 601 685.7 601 642.8 601C600 601 557 601 514.2 601C471.3 601 428.7 601 385.8 601C343 601 300 601 257.2 601C214.3 601 171.7 601 128.8 601C86 601 43 601 21.5 601L0 601Z" fill="#0077c1"></path><path d="M0 522L21.5 522.5C43 523 86 524 128.8 520.5C171.7 517 214.3 509 257.2 503.3C300 497.7 343 494.3 385.8 494.7C428.7 495 471.3 499 514.2 499.8C557 500.7 600 498.3 642.8 502C685.7 505.7 728.3 515.3 771.2 513.7C814 512 857 499 878.5 492.5L900 486L900 601L878.5 601C857 601 814 601 771.2 601C728.3 601 685.7 601 642.8 601C600 601 557 601 514.2 601C471.3 601 428.7 601 385.8 601C343 601 300 601 257.2 601C214.3 601 171.7 601 128.8 601C86 601 43 601 21.5 601L0 601Z" fill="#008bc4"></path><path d="M0 508L21.5 512.2C43 516.3 86 524.7 128.8 531.8C171.7 539 214.3 545 257.2 542.2C300 539.3 343 527.7 385.8 525C428.7 522.3 471.3 528.7 514.2 529.3C557 530 600 525 642.8 524.3C685.7 523.7 728.3 527.3 771.2 532.7C814 538 857 545 878.5 548.5L900 552L900 601L878.5 601C857 601 814 601 771.2 601C728.3 601 685.7 601 642.8 601C600 601 557 601 514.2 601C471.3 601 428.7 601 385.8 601C343 601 300 601 257.2 601C214.3 601 171.7 601 128.8 601C86 601 43 601 21.5 601L0 601Z" fill="#009dc2"></path><path d="M0 549L21.5 548C43 547 86 545 128.8 543.8C171.7 542.7 214.3 542.3 257.2 544.8C300 547.3 343 552.7 385.8 555.5C428.7 558.3 471.3 558.7 514.2 559.7C557 560.7 600 562.3 642.8 562C685.7 561.7 728.3 559.3 771.2 560.5C814 561.7 857 566.3 878.5 568.7L900 571L900 601L878.5 601C857 601 814 601 771.2 601C728.3 601 685.7 601 642.8 601C600 601 557 601 514.2 601C471.3 601 428.7 601 385.8 601C343 601 300 601 257.2 601C214.3 601 171.7 601 128.8 601C86 601 43 601 21.5 601L0 601Z" fill="#1dacb9"></path></svg>