<svg id="visual" viewBox="0 0 900 600" width="900" height="600" xmlns="http://www.w3.org/2000/svg" xmlns:xlink="http://www.w3.org/1999/xlink" version="1.1"><rect x="0" y="0" width="900" height="600" fill="#333"></rect><path d="M0 209L37.5 236.3C75 263.7 150 318.3 225 357.7C300 397 375 421 450 396.2C525 371.3 600 297.7 675 293.5C750 289.3 825 354.7 862.5 387.3L900 420L900 601L862.5 601C825 601 750 601 675 601C600 601 525 601 450 601C375 601 300 601 225 601C150 601 75 601 37.5 601L0 601Z" fill="#1d61b9"></path><path d="M0 478L37.5 475.3C75 472.7 150 467.3 225 466.3C300 465.3 375 468.7 450 454.7C525 440.7 600 409.3 675 401.2C750 393 825 408 862.5 415.5L900 423L900 601L862.5 601C825 601 750 601 675 601C600 601 525 601 450 601C375 601 300 601 225 601C150 601 75 601 37.5 601L0 601Z" fill="#008bc4"></path><path d="M0 431L37.5 430C75 429 150 427 225 421.3C300 415.7 375 406.3 450 412C525 417.7 600 438.3 675 460.3C750 482.3 825 505.7 862.5 517.3L900 529L900 601L862.5 601C825 601 750 601 675 601C600 601 525 601 450 601C375 601 300 601 225 601C150 601 75 601 37.5 601L0 601Z" fill="#1dacb9"></path></svg>