<svg id="visual" viewBox="0 0 900 600" width="900" height="600" xmlns="http://www.w3.org/2000/svg" xmlns:xlink="http://www.w3.org/1999/xlink" version="1.1"><rect x="0" y="0" width="900" height="600" fill="#333"></rect><path d="M0 494L13.7 480C27.3 466 54.7 438 82 425C109.3 412 136.7 414 163.8 419C191 424 218 432 245.2 428.2C272.3 424.3 299.7 408.7 327 417.7C354.3 426.7 381.7 460.3 409 468.3C436.3 476.3 463.7 458.7 491 446C518.3 433.3 545.7 425.7 573 423.8C600.3 422 627.7 426 654.8 428.7C682 431.3 709 432.7 736.2 444.5C763.3 456.3 790.7 478.7 818 487C845.3 495.3 872.7 489.7 886.3 486.8L900 484L900 601L886.3 601C872.7 601 845.3 601 818 601C790.7 601 763.3 601 736.2 601C709 601 682 601 654.8 601C627.7 601 600.3 601 573 601C545.7 601 518.3 601 491 601C463.7 601 436.3 601 409 601C381.7 601 354.3 601 327 601C299.7 601 272.3 601 245.2 601C218 601 191 601 163.8 601C136.7 601 109.3 601 82 601C54.7 601 27.3 601 13.7 601L0 601Z" fill="#1d61b9"></path><path d="M0 493L13.7 488C27.3 483 54.7 473 82 475.5C109.3 478 136.7 493 163.8 487.3C191 481.7 218 455.3 245.2 449.7C272.3 444 299.7 459 327 466.2C354.3 473.3 381.7 472.7 409 469.2C436.3 465.7 463.7 459.3 491 463.3C518.3 467.3 545.7 481.7 573 485.2C600.3 488.7 627.7 481.3 654.8 481.8C682 482.3 709 490.7 736.2 484.8C763.3 479 790.7 459 818 447.8C845.3 436.7 872.7 434.3 886.3 433.2L900 432L900 601L886.3 601C872.7 601 845.3 601 818 601C790.7 601 763.3 601 736.2 601C709 601 682 601 654.8 601C627.7 601 600.3 601 573 601C545.7 601 518.3 601 491 601C463.7 601 436.3 601 409 601C381.7 601 354.3 601 327 601C299.7 601 272.3 601 245.2 601C218 601 191 601 163.8 601C136.7 601 109.3 601 82 601C54.7 601 27.3 601 13.7 601L0 601Z" fill="#0073c0"></path><path d="M0 513L13.7 514.3C27.3 515.7 54.7 518.3 82 512.8C109.3 507.3 136.7 493.7 163.8 496.2C191 498.7 218 517.3 245.2 517C272.3 516.7 299.7 497.3 327 485.7C354.3 474 381.7 470 409 479.7C436.3 489.3 463.7 512.7 491 523.5C518.3 534.3 545.7 532.7 573 531.3C600.3 530 627.7 529 654.8 526.5C682 524 709 520 736.2 521.5C763.3 523 790.7 530 818 521.5C845.3 513 872.7 489 886.3 477L900 465L900 601L886.3 601C872.7 601 845.3 601 818 601C790.7 601 763.3 601 736.2 601C709 601 682 601 654.8 601C627.7 601 600.3 601 573 601C545.7 601 518.3 601 491 601C463.7 601 436.3 601 409 601C381.7 601 354.3 601 327 601C299.7 601 272.3 601 245.2 601C218 601 191 601 163.8 601C136.7 601 109.3 601 82 601C54.7 601 27.3 601 13.7 601L0 601Z" fill="#0083c3"></path><path d="M0 485L13.7 490.5C27.3 496 54.7 507 82 507.3C109.3 507.7 136.7 497.3 163.8 498.2C191 499 218 511 245.2 510.2C272.3 509.3 299.7 495.7 327 500C354.3 504.3 381.7 526.7 409 533.2C436.3 539.7 463.7 530.3 491 524C518.3 517.7 545.7 514.3 573 518.7C600.3 523 627.7 535 654.8 540.2C682 545.3 709 543.7 736.2 533.7C763.3 523.7 790.7 505.3 818 505.7C845.3 506 872.7 525 886.3 534.5L900 544L900 601L886.3 601C872.7 601 845.3 601 818 601C790.7 601 763.3 601 736.2 601C709 601 682 601 654.8 601C627.7 601 600.3 601 573 601C545.7 601 518.3 601 491 601C463.7 601 436.3 601 409 601C381.7 601 354.3 601 327 601C299.7 601 272.3 601 245.2 601C218 601 191 601 163.8 601C136.7 601 109.3 601 82 601C54.7 601 27.3 601 13.7 601L0 601Z" fill="#0092c4"></path><path d="M0 528L13.7 532.8C27.3 537.7 54.7 547.3 82 548C109.3 548.7 136.7 540.3 163.8 535C191 529.7 218 527.3 245.2 529C272.3 530.7 299.7 536.3 327 540.7C354.3 545 381.7 548 409 550.8C436.3 553.7 463.7 556.3 491 554.8C518.3 553.3 545.7 547.7 573 539.5C600.3 531.3 627.7 520.7 654.8 522.8C682 525 709 540 736.2 545.8C763.3 551.7 790.7 548.3 818 547C845.3 545.7 872.7 546.3 886.3 546.7L900 547L900 601L886.3 601C872.7 601 845.3 601 818 601C790.7 601 763.3 601 736.2 601C709 601 682 601 654.8 601C627.7 601 600.3 601 573 601C545.7 601 518.3 601 491 601C463.7 601 436.3 601 409 601C381.7 601 354.3 601 327 601C299.7 601 272.3 601 245.2 601C218 601 191 601 163.8 601C136.7 601 109.3 601 82 601C54.7 601 27.3 601 13.7 601L0 601Z" fill="#00a0c0"></path><path d="M0 548L13.7 548.7C27.3 549.3 54.7 550.7 82 553.3C109.3 556 136.7 560 163.8 558.8C191 557.7 218 551.3 245.2 551.2C272.3 551 299.7 557 327 562.2C354.3 567.3 381.7 571.7 409 571.7C436.3 571.7 463.7 567.3 491 567.3C518.3 567.3 545.7 571.7 573 572.7C600.3 573.7 627.7 571.3 654.8 573C682 574.7 709 580.3 736.2 577.5C763.3 574.7 790.7 563.3 818 557.5C845.3 551.7 872.7 551.3 886.3 551.2L900 551L900 601L886.3 601C872.7 601 845.3 601 818 601C790.7 601 763.3 601 736.2 601C709 601 682 601 654.8 601C627.7 601 600.3 601 573 601C545.7 601 518.3 601 491 601C463.7 601 436.3 601 409 601C381.7 601 354.3 601 327 601C299.7 601 272.3 601 245.2 601C218 601 191 601 163.8 601C136.7 601 109.3 601 82 601C54.7 601 27.3 601 13.7 601L0 601Z" fill="#1dacb9"></path></svg>