<svg id="visual" viewBox="0 0 900 450" width="900" height="450" xmlns="http://www.w3.org/2000/svg" xmlns:xlink="http://www.w3.org/1999/xlink" version="1.1"><rect x="0" y="0" width="900" height="450" fill="#333"></rect><path d="M0 316L21.5 317.3C43 318.7 86 321.3 128.8 312.7C171.7 304 214.3 284 257.2 284.3C300 284.7 343 305.3 385.8 307.2C428.7 309 471.3 292 514.2 287.7C557 283.3 600 291.7 642.8 293.8C685.7 296 728.3 292 771.2 295.3C814 298.7 857 309.3 878.5 314.7L900 320L900 451L878.5 451C857 451 814 451 771.2 451C728.3 451 685.7 451 642.8 451C600 451 557 451 514.2 451C471.3 451 428.7 451 385.8 451C343 451 300 451 257.2 451C214.3 451 171.7 451 128.8 451C86 451 43 451 21.5 451L0 451Z" fill="#1dacb9"></path><path d="M0 352L21.5 346.8C43 341.7 86 331.3 128.8 331C171.7 330.7 214.3 340.3 257.2 346C300 351.7 343 353.3 385.8 345.2C428.7 337 471.3 319 514.2 319.5C557 320 600 339 642.8 338.3C685.7 337.7 728.3 317.3 771.2 308C814 298.7 857 300.3 878.5 301.2L900 302L900 451L878.5 451C857 451 814 451 771.2 451C728.3 451 685.7 451 642.8 451C600 451 557 451 514.2 451C471.3 451 428.7 451 385.8 451C343 451 300 451 257.2 451C214.3 451 171.7 451 128.8 451C86 451 43 451 21.5 451L0 451Z" fill="#009dc2"></path><path d="M0 365L21.5 361.5C43 358 86 351 128.8 351.7C171.7 352.3 214.3 360.7 257.2 366.3C300 372 343 375 385.8 373C428.7 371 471.3 364 514.2 362C557 360 600 363 642.8 366.8C685.7 370.7 728.3 375.3 771.2 377.7C814 380 857 380 878.5 380L900 380L900 451L878.5 451C857 451 814 451 771.2 451C728.3 451 685.7 451 642.8 451C600 451 557 451 514.2 451C471.3 451 428.7 451 385.8 451C343 451 300 451 257.2 451C214.3 451 171.7 451 128.8 451C86 451 43 451 21.5 451L0 451Z" fill="#008bc4"></path><path d="M0 396L21.5 395.7C43 395.3 86 394.7 128.8 395.2C171.7 395.7 214.3 397.3 257.2 393.8C300 390.3 343 381.7 385.8 378C428.7 374.3 471.3 375.7 514.2 375.2C557 374.7 600 372.3 642.8 376.5C685.7 380.7 728.3 391.3 771.2 395.7C814 400 857 398 878.5 397L900 396L900 451L878.5 451C857 451 814 451 771.2 451C728.3 451 685.7 451 642.8 451C600 451 557 451 514.2 451C471.3 451 428.7 451 385.8 451C343 451 300 451 257.2 451C214.3 451 171.7 451 128.8 451C86 451 43 451 21.5 451L0 451Z" fill="#0077c1"></path><path d="M0 424L21.5 421.8C43 419.7 86 415.3 128.8 413.8C171.7 412.3 214.3 413.7 257.2 416.3C300 419 343 423 385.8 419.8C428.7 416.7 471.3 406.3 514.2 405C557 403.7 600 411.3 642.8 416C685.7 420.7 728.3 422.3 771.2 424.2C814 426 857 428 878.5 429L900 430L900 451L878.5 451C857 451 814 451 771.2 451C728.3 451 685.7 451 642.8 451C600 451 557 451 514.2 451C471.3 451 428.7 451 385.8 451C343 451 300 451 257.2 451C214.3 451 171.7 451 128.8 451C86 451 43 451 21.5 451L0 451Z" fill="#1d61b9"></path></svg>