<svg id="visual" viewBox="0 0 900 600" width="900" height="600" xmlns="http://www.w3.org/2000/svg" xmlns:xlink="http://www.w3.org/1999/xlink" version="1.1"><rect x="0" y="0" width="900" height="600" fill="#333"></rect><path d="M0 335L11.5 340.2C23 345.3 46 355.7 69 356.3C92 357 115 348 138.2 349.8C161.3 351.7 184.7 364.3 207.8 356.2C231 348 254 319 277 309.3C300 299.7 323 309.3 346 318.5C369 327.7 392 336.3 415.2 333.2C438.3 330 461.7 315 484.8 307.2C508 299.3 531 298.7 554 296.5C577 294.3 600 290.7 623 297.5C646 304.3 669 321.7 692.2 338.2C715.3 354.7 738.7 370.3 761.8 376.2C785 382 808 378 831 377.5C854 377 877 380 888.5 381.5L900 383L900 601L888.5 601C877 601 854 601 831 601C808 601 785 601 761.8 601C738.7 601 715.3 601 692.2 601C669 601 646 601 623 601C600 601 577 601 554 601C531 601 508 601 484.8 601C461.7 601 438.3 601 415.2 601C392 601 369 601 346 601C323 601 300 601 277 601C254 601 231 601 207.8 601C184.7 601 161.3 601 138.2 601C115 601 92 601 69 601C46 601 23 601 11.5 601L0 601Z" fill="#1d61b9"></path><path d="M0 426L11.5 407.5C23 389 46 352 69 344.3C92 336.7 115 358.3 138.2 365.3C161.3 372.3 184.7 364.7 207.8 356.8C231 349 254 341 277 350.2C300 359.3 323 385.7 346 401.2C369 416.7 392 421.3 415.2 407.7C438.3 394 461.7 362 484.8 345.7C508 329.3 531 328.7 554 339.8C577 351 600 374 623 388C646 402 669 407 692.2 411.3C715.3 415.7 738.7 419.3 761.8 416C785 412.7 808 402.3 831 389.3C854 376.3 877 360.7 888.5 352.8L900 345L900 601L888.5 601C877 601 854 601 831 601C808 601 785 601 761.8 601C738.7 601 715.3 601 692.2 601C669 601 646 601 623 601C600 601 577 601 554 601C531 601 508 601 484.8 601C461.7 601 438.3 601 415.2 601C392 601 369 601 346 601C323 601 300 601 277 601C254 601 231 601 207.8 601C184.7 601 161.3 601 138.2 601C115 601 92 601 69 601C46 601 23 601 11.5 601L0 601Z" fill="#0073c0"></path><path d="M0 395L11.5 390C23 385 46 375 69 381.7C92 388.3 115 411.7 138.2 428.5C161.3 445.3 184.7 455.7 207.8 453.8C231 452 254 438 277 433C300 428 323 432 346 431C369 430 392 424 415.2 423.8C438.3 423.7 461.7 429.3 484.8 436.8C508 444.3 531 453.7 554 443.3C577 433 600 403 623 398.8C646 394.7 669 416.3 692.2 421.7C715.3 427 738.7 416 761.8 411.8C785 407.7 808 410.3 831 404.3C854 398.3 877 383.7 888.5 376.3L900 369L900 601L888.5 601C877 601 854 601 831 601C808 601 785 601 761.8 601C738.7 601 715.3 601 692.2 601C669 601 646 601 623 601C600 601 577 601 554 601C531 601 508 601 484.8 601C461.7 601 438.3 601 415.2 601C392 601 369 601 346 601C323 601 300 601 277 601C254 601 231 601 207.8 601C184.7 601 161.3 601 138.2 601C115 601 92 601 69 601C46 601 23 601 11.5 601L0 601Z" fill="#0083c3"></path><path d="M0 503L11.5 497.5C23 492 46 481 69 472.7C92 464.3 115 458.7 138.2 457.7C161.3 456.7 184.7 460.3 207.8 466.3C231 472.3 254 480.7 277 474.2C300 467.7 323 446.3 346 434.5C369 422.7 392 420.3 415.2 427C438.3 433.7 461.7 449.3 484.8 453.7C508 458 531 451 554 445.8C577 440.7 600 437.3 623 435.2C646 433 669 432 692.2 443.3C715.3 454.7 738.7 478.3 761.8 481.8C785 485.3 808 468.7 831 459C854 449.3 877 446.7 888.5 445.3L900 444L900 601L888.5 601C877 601 854 601 831 601C808 601 785 601 761.8 601C738.7 601 715.3 601 692.2 601C669 601 646 601 623 601C600 601 577 601 554 601C531 601 508 601 484.8 601C461.7 601 438.3 601 415.2 601C392 601 369 601 346 601C323 601 300 601 277 601C254 601 231 601 207.8 601C184.7 601 161.3 601 138.2 601C115 601 92 601 69 601C46 601 23 601 11.5 601L0 601Z" fill="#0092c4"></path><path d="M0 507L11.5 505.2C23 503.3 46 499.7 69 494.8C92 490 115 484 138.2 490.3C161.3 496.7 184.7 515.3 207.8 517.8C231 520.3 254 506.7 277 498.7C300 490.7 323 488.3 346 494.5C369 500.7 392 515.3 415.2 521.2C438.3 527 461.7 524 484.8 522.5C508 521 531 521 554 520.3C577 519.7 600 518.3 623 511.8C646 505.3 669 493.7 692.2 489.2C715.3 484.7 738.7 487.3 761.8 487.8C785 488.3 808 486.7 831 494C854 501.3 877 517.7 888.5 525.8L900 534L900 601L888.5 601C877 601 854 601 831 601C808 601 785 601 761.8 601C738.7 601 715.3 601 692.2 601C669 601 646 601 623 601C600 601 577 601 554 601C531 601 508 601 484.8 601C461.7 601 438.3 601 415.2 601C392 601 369 601 346 601C323 601 300 601 277 601C254 601 231 601 207.8 601C184.7 601 161.3 601 138.2 601C115 601 92 601 69 601C46 601 23 601 11.5 601L0 601Z" fill="#00a0c0"></path><path d="M0 564L11.5 557.5C23 551 46 538 69 533.3C92 528.7 115 532.3 138.2 539C161.3 545.7 184.7 555.3 207.8 559.7C231 564 254 563 277 558.2C300 553.3 323 544.7 346 542.8C369 541 392 546 415.2 545.5C438.3 545 461.7 539 484.8 538.3C508 537.7 531 542.3 554 548C577 553.7 600 560.3 623 557.3C646 554.3 669 541.7 692.2 544.2C715.3 546.7 738.7 564.3 761.8 564.5C785 564.7 808 547.3 831 547.3C854 547.3 877 564.7 888.5 573.3L900 582L900 601L888.5 601C877 601 854 601 831 601C808 601 785 601 761.8 601C738.7 601 715.3 601 692.2 601C669 601 646 601 623 601C600 601 577 601 554 601C531 601 508 601 484.8 601C461.7 601 438.3 601 415.2 601C392 601 369 601 346 601C323 601 300 601 277 601C254 601 231 601 207.8 601C184.7 601 161.3 601 138.2 601C115 601 92 601 69 601C46 601 23 601 11.5 601L0 601Z" fill="#1dacb9"></path></svg>